<?xml version="1.0" encoding="utf-8"?>
<!-- Generator: Adobe Illustrator 23.1.0, SVG Export Plug-In . SVG Version: 6.00 Build 0)  -->
<svg version="1.1" id="Capa_1" xmlns="http://www.w3.org/2000/svg" xmlns:xlink="http://www.w3.org/1999/xlink" x="0px" y="0px"
	 viewBox="0 0 100 100" style="enable-background:new 0 0 100 100;" xml:space="preserve">
<style type="text/css">
	.st0{fill:#2A2A2A;}
	.st1{fill:#676767;}
</style>
<g>
	<polygon class="st0" points="8.2,36.3 8.2,8.3 33.4,8.3 38.7,16.3 91.5,16.3 91.5,36.3 	"/>
	<path class="st1" d="M99.5,36.1c-0.4-0.5-1-0.7-1.6-0.7h-4.4V17.6c0-1.6-1.3-3-3-3H39.3l-4.1-6.9c-0.5-0.9-1.5-1.4-2.5-1.4h-23
		c-1.6,0-2.9,1.3-2.9,3v26.1H2.1c-0.6,0-1.2,0.3-1.6,0.7c-0.4,0.5-0.6,1.1-0.5,1.7l8.2,54.2c0.2,1,1.1,1.8,2.1,1.8h79.3
		c1,0,1.9-0.8,2.1-1.8l8.2-54.2C100.1,37.1,99.9,36.5,99.5,36.1z M10,35.3V9.6h22.4l4.1,6.9c0.5,0.9,1.5,1.4,2.5,1.4h51v17.4H10z
		 M88.6,90.4H11.4L3.5,38.7h3.1h5h76.8h5h3L88.6,90.4z"/>
	<path class="st1" d="M31.9,53.4L27.8,57c0,0.1,0,0.2,0,0.3c0,2.2,1.8,3.9,3.9,3.9c2.2,0,3.9-1.8,3.9-3.9
		C35.6,55.2,34,53.5,31.9,53.4z"/>
	<path class="st1" d="M68.1,53.4l4.2,3.7c0,0.1,0,0.2,0,0.3c0,2.2-1.8,3.9-3.9,3.9c-2.2,0-3.9-1.8-3.9-3.9
		C64.4,55.2,66,53.5,68.1,53.4z"/>
	<path class="st1" d="M41.5,83.7c-0.8,0-1.5-0.7-1.5-1.5c0-6.7,5.4-12.1,12.1-12.1h6.4c0.8,0,1.5,0.7,1.5,1.5s-0.7,1.5-1.5,1.5h-6.4
		c-5,0-9.1,4.1-9.1,9.1C43,83.1,42.3,83.7,41.5,83.7z"/>
</g>
</svg>
