<?xml version="1.0" encoding="utf-8"?>
<!-- Generator: Adobe Illustrator 23.1.0, SVG Export Plug-In . SVG Version: 6.00 Build 0)  -->
<svg version="1.1" id="Layer_1" xmlns="http://www.w3.org/2000/svg" xmlns:xlink="http://www.w3.org/1999/xlink" x="0px" y="0px"
	 viewBox="0 0 42 42" style="enable-background:new 0 0 42 42;" xml:space="preserve">
<style type="text/css">
	.st0{fill:#0A0A0A;}
	.st1{fill:#FAFAFA;}
</style>
<path class="st0" d="M17.8,28.7l10.5-6.6v0c0.2-0.1,0.3-0.2,0.4-0.4c0.4-0.6,0.2-1.4-0.4-1.8l-10.5-6.6c-0.2-0.1-0.4-0.2-0.7-0.2
	c-0.7,0-1.3,0.6-1.3,1.3v13.1c0,0.2,0.1,0.5,0.2,0.7C16.3,28.9,17.1,29.1,17.8,28.7z"/>
<path class="st1" d="M21,0C9.4,0,0,9.4,0,21s9.4,21,21,21s21-9.4,21-21S32.6,0,21,0z M28.7,21.7c-0.1,0.2-0.2,0.3-0.4,0.4v0
	l-10.5,6.6c-0.6,0.4-1.4,0.2-1.8-0.4c-0.1-0.2-0.2-0.4-0.2-0.7V14.4c0-0.7,0.6-1.3,1.3-1.3c0.2,0,0.5,0.1,0.7,0.2l10.5,6.6
	C28.9,20.3,29.1,21.1,28.7,21.7z"/>
</svg>
