<?xml version="1.0" encoding="utf-8"?>
<!-- Generator: Adobe Illustrator 23.1.0, SVG Export Plug-In . SVG Version: 6.00 Build 0)  -->
<svg version="1.1" id="Layer_1" xmlns="http://www.w3.org/2000/svg" xmlns:xlink="http://www.w3.org/1999/xlink" x="0px" y="0px"
	 viewBox="0 0 24 24" style="enable-background:new 0 0 24 24;" xml:space="preserve">
<g>
	<path id="search" d="M21,20l-4.3-4.3c1.3-1.5,2-3.6,1.8-5.6c-0.1-2.1-1.1-4-2.7-5.4c-1.6-1.4-3.6-2-5.7-1.9C8,3,6.1,4,4.8,5.5
		c-1.4,1.6-2,3.6-1.9,5.7c0.1,2.1,1.1,4,2.7,5.4c2.9,2.5,7.2,2.5,10.2,0.1L20,21c0.3,0.3,0.7,0.3,1,0C21.2,20.7,21.2,20.3,21,20z
		 M17.1,10.7c0,3.6-2.9,6.5-6.5,6.5s-6.5-2.9-6.5-6.5c0-3.5,2.9-6.4,6.4-6.4c0,0,0.1,0,0.1,0c3.5-0.1,6.4,2.8,6.5,6.3
		C17.1,10.6,17.1,10.7,17.1,10.7z"/>
</g>
</svg>
