<?xml version="1.0" encoding="utf-8"?>
<!-- Generator: Adobe Illustrator 23.1.0, SVG Export Plug-In . SVG Version: 6.00 Build 0)  -->
<svg version="1.1" id="share" xmlns="http://www.w3.org/2000/svg" xmlns:xlink="http://www.w3.org/1999/xlink" x="0px" y="0px"
	 viewBox="0 0 24 24" style="enable-background:new 0 0 24 24;" xml:space="preserve">
<path d="M18.5,15.2c0,0-0.1,0-0.1,0c-1.4,0.1-2.6,0.9-3,2.2l-6.8-4c0.4-0.8,0.4-1.8,0-2.6L15.5,7c0.6,1.1,1.8,1.9,3.1,1.9l0.2,0v0
	c0.8-0.1,1.6-0.4,2.2-1c0.7-0.6,1-1.5,1-2.4c0-0.9-0.4-1.8-1-2.4c-0.7-0.6-1.5-1-2.4-1h0c-0.9,0-1.8,0.4-2.4,1c-0.7,0.6-1,1.5-1,2.4
	c0,0,0,0.1,0,0.1l-7.3,4C6.6,8.3,4.5,8.3,3.1,9.5C2.4,10.1,2,11,2,11.9c0,0.9,0.3,1.8,0.9,2.5s1.5,1.1,2.4,1.1
	c0.9,0,1.8-0.3,2.5-0.9c0,0,0,0,0,0l7.4,4.3c0.1,1.8,1.6,3.1,3.4,3.1c0,0,0.1,0,0.1,0c1.9-0.1,3.4-1.7,3.3-3.5
	C21.9,16.6,20.4,15.2,18.5,15.2z M20.6,18.6c0,1.1-0.9,2-2,2s-2-0.9-2-2c0-1.1,0.9-2,2-2S20.6,17.5,20.6,18.6z M16.5,5.4
	c0-1.1,0.9-2,2-2s2,0.9,2,2s-0.9,2-2,2S16.5,6.5,16.5,5.4z M7.5,12c0,1.1-0.9,2-2,2s-2-0.9-2-2s0.9-2,2-2S7.5,10.9,7.5,12z"/>
</svg>
