<?xml version="1.0" encoding="utf-8"?>
<!-- Generator: Adobe Illustrator 23.1.0, SVG Export Plug-In . SVG Version: 6.00 Build 0)  -->
<svg version="1.1" id="Layer_1" xmlns="http://www.w3.org/2000/svg" xmlns:xlink="http://www.w3.org/1999/xlink" x="0px" y="0px"
	 viewBox="0 0 24 24" style="enable-background:new 0 0 24 24;" xml:space="preserve">
<style type="text/css">
	.st0{fill:#606060;}
	.st1{fill:#F8F8F8;}
</style>
<g id="tabbar_search_active" transform="translate(-1.988 -2.048)">
	<g id="Group_1421" transform="translate(6.906 7.106)">
		<path id="Path_2445" class="st0" d="M13.4,7.7c0,3.2-2.6,5.7-5.7,5.7S2,10.9,2,7.7C2,4.6,4.6,2,7.7,2C10.9,2,13.4,4.5,13.4,7.7
			C13.4,7.7,13.4,7.7,13.4,7.7z"/>
	</g>
	<g id="Group_1422" transform="translate(1.988 2.048)">
		<path id="tabbar_search" class="st1" d="M5.9,11.3c-0.4,0-0.8-0.3-0.8-0.8c0,0,0,0,0,0c0-3,2.4-5.4,5.4-5.4c0,0,0,0,0.1,0l0,0
			c0.4,0,0.7,0.4,0.7,0.8c0,0.4-0.3,0.7-0.7,0.7c0,0,0,0,0,0c-2.2,0-3.9,1.7-3.9,3.9C6.6,10.8,6.3,11.3,5.9,11.3z M21.6,19.1
			L17.7,15c0.4-0.6,0.7-1.3,0.9-2C20,8.5,17.4,3.7,13,2.4S3.7,3.5,2.4,8S3.5,17.2,8,18.6c0,0,0,0,0,0c0.8,0.2,1.7,0.4,2.5,0.4
			c0.5,0,1.1-0.1,1.6-0.2c0.4-0.1,0.7-0.4,0.6-0.9c-0.1-0.4-0.4-0.7-0.9-0.6c0,0-0.1,0-0.1,0l0,0c-0.4,0.1-0.9,0.1-1.3,0.1
			c-3.8,0-6.9-3.1-6.9-6.9c0.1-3.8,3.1-6.8,6.9-6.9c3.9,0,7,3.2,6.9,7.1c0,2.1-1,4.1-2.7,5.4l0,0c0,0.1,0,0.1-0.1,0.1l0,0l-0.1,0.1
			c0,0.1,0,0.1-0.1,0.1l0,0v0.3c0,0.1,0,0.1,0.1,0.1l0,0v0.1l0,0l4.3,4.6c0.3,0.4,0.8,0.6,1.3,0.5c1,0,1.9-0.9,1.9-1.9
			C22.1,19.9,21.9,19.4,21.6,19.1L21.6,19.1z M20.4,20.7c-0.1,0.1-0.4,0.2-0.5,0l-3.7-4c0.2-0.1,0.3-0.3,0.5-0.5l3.8,3.9
			C20.5,20.3,20.5,20.5,20.4,20.7z"/>
	</g>
</g>
</svg>
