<?xml version="1.0" encoding="utf-8"?>
<!-- Generator: Adobe Illustrator 23.1.0, SVG Export Plug-In . SVG Version: 6.00 Build 0)  -->
<svg version="1.1" id="tabbar_home" xmlns="http://www.w3.org/2000/svg" xmlns:xlink="http://www.w3.org/1999/xlink" x="0px"
	 y="0px" viewBox="0 0 24 24" style="enable-background:new 0 0 24 24;" xml:space="preserve">
<style type="text/css">
	.st0{fill:#606060;}
	.st1{fill:#404040;}
</style>
<g>
	<path id="Path_25" class="st0" d="M22.7,10L12.6,1.5c-0.3-0.3-0.8-0.3-1.1,0L1.3,10c-0.4,0.3-0.4,0.9-0.1,1.3
		c0.3,0.4,0.8,0.5,1.2,0.2c0,0,0,0,0,0l9.6-8l7.5,6.3v8.4c0,1.4-1.1,2.6-2.6,2.7H7c-1.4,0-2.6-1.2-2.6-2.7V15c0-0.5-0.4-0.9-0.9-0.9
		c0,0,0,0,0,0c-0.5,0-0.9,0.4-0.9,0.9c0,0,0,0,0,0v3.2c0,2.4,1.9,4.5,4.4,4.5H17c2.4,0,4.4-2.1,4.4-4.5v-7l0.2,0.2
		c0.2,0.1,0.4,0.2,0.6,0.2c0.3,0,0.5-0.1,0.7-0.3C23.1,10.9,23.1,10.3,22.7,10z"/>
	<path id="Path_26" class="st1" d="M14.9,13.8c0,1.6-1.3,2.9-2.9,2.9s-2.9-1.3-2.9-2.9c0-1.6,1.3-2.9,2.9-2.9
		C13.6,10.9,14.9,12.2,14.9,13.8C14.9,13.8,14.9,13.8,14.9,13.8z"/>
</g>
</svg>
