<?xml version="1.0" encoding="utf-8"?>
<!-- Generator: Adobe Illustrator 23.1.0, SVG Export Plug-In . SVG Version: 6.00 Build 0)  -->
<svg version="1.1" id="Layer_1" xmlns="http://www.w3.org/2000/svg" xmlns:xlink="http://www.w3.org/1999/xlink" x="0px" y="0px"
	 viewBox="0 0 24 24" style="enable-background:new 0 0 24 24;" xml:space="preserve">
<style type="text/css">
	.st0{fill:#404040;}
	.st1{fill:#606060;}
</style>
<g id="tabbar_search" transform="translate(-4.348 -4.048)">
	<path id="Path_1150" class="st0" d="M10.2,15.3c-0.4,0-0.8-0.3-0.8-0.8c0,0,0,0,0,0c0-3,2.4-5.4,5.4-5.4l0,0c0.4,0,0.7,0.4,0.7,0.8
		c0,0.4-0.3,0.7-0.7,0.7c0,0,0,0,0,0c-2.1,0-3.9,1.7-3.9,3.9c0,0,0,0,0,0C10.9,14.9,10.6,15.3,10.2,15.3z"/>
	<path id="Path_1151" class="st1" d="M25.8,23.2L22,19.1c0.4-0.6,0.7-1.3,0.9-2c1.4-4.5-1.1-9.2-5.6-10.6S8.1,7.6,6.7,12.1
		c-1.4,4.5,1.1,9.2,5.6,10.6c0.8,0.2,1.7,0.4,2.5,0.4c0.5,0,1.1-0.1,1.6-0.2c0.4-0.1,0.7-0.5,0.6-0.9c-0.1-0.4-0.5-0.7-0.9-0.6l0,0
		c-0.4,0.1-0.9,0.1-1.3,0.1c-3.8,0-7-3.1-7-6.9s3.1-7,6.9-7s7,3.1,7,6.9c0,0,0,0,0,0c0,2.2-1,4.3-2.7,5.6l0,0c0,0.1,0,0.1-0.1,0.1
		l0,0l-0.1,0.1c0,0.1,0,0.1-0.1,0.1l0,0v0.3c0,0.1,0,0.1,0.1,0.1l0,0v0.1l0,0l4.3,4.6c0.3,0.4,0.8,0.6,1.3,0.5
		c1.1,0,1.9-0.9,1.9-1.9c0,0,0,0,0,0C26.3,23.7,26.1,23.4,25.8,23.2L25.8,23.2z M24.7,24.8c-0.1,0.1-0.4,0.2-0.5,0l-3.7-4
		c0.2-0.1,0.3-0.3,0.5-0.5l3.8,3.9C24.8,24.4,24.8,24.6,24.7,24.8L24.7,24.8z"/>
</g>
</svg>
